<svg width="390" height="83" viewBox="0 0 390 83" fill="none" xmlns="http://www.w3.org/2000/svg">
<path d="M14.7748 68.7653C14.9615 68.7799 15.1436 68.7967 15.3308 68.8272C17.0094 69.0953 18.4603 70.9058 20.2063 69.948C20.4222 69.4432 20.7819 69.2571 20.9971 68.7714C23.0203 68.6451 26.3892 68.7176 27.5989 70.6715C29.5967 73.9022 29.5011 69.9339 31.0105 71.3247C31.033 71.6823 30.4511 76.4115 32.2258 74.6183C32.5321 74.3085 32.1471 73.8453 32.7307 73.7705C33.3906 73.6851 33.2905 74.8297 33.273 75.2265C33.2113 76.5997 31.5669 77.3013 31.5147 78.6466C31.503 78.8888 32.5608 79.6555 32.7082 79.8146C33.3125 80.4847 33.4743 81.2127 33.5233 82.0969C35.09 82.2121 35.3322 81.7489 35.2743 80.2475C35.2248 78.9512 36.9938 78.1805 37.6274 77.145C38.3643 75.9387 38.9097 74.4378 40.5673 75.1764C42.0153 75.819 43.3836 76.1703 44.9824 76.0865C44.672 73.7648 49.838 74.0994 50.055 76.7522C50.9118 76.814 51.778 76.7931 52.6184 77.0135C54.0906 77.4031 53.361 76.8522 54.3233 76.1804C54.3689 75.86 54.5145 75.5868 54.5949 75.2663C54.7517 75.5199 55.0007 75.6301 55.1092 75.9505C55.6629 75.7206 55.3763 75.0606 55.8288 74.7408C56.2683 74.4277 56.9272 74.6598 57.414 74.4986C57.5877 74.0156 58.0105 73.6845 58.0481 73.1899C56.726 73.3523 56.9115 71.1904 57.0379 70.4349C57.1318 69.8329 57.3775 69.3348 57.5578 68.7439C57.907 67.6016 57.6703 66.1969 58.0863 65.1221C58.9233 65.4481 61.8076 67.1024 61.9656 65.632C62.1235 64.1789 63.34 63.7134 63.7829 65.4576C63.9342 66.0558 63.9213 66.8147 64.3294 67.3206C65.0955 68.265 65.5306 67.0626 66.0292 66.6697C66.9123 65.9743 67.4683 66.1536 67.4605 64.8275C67.448 63.606 67.0715 63.4058 65.9298 63.3097C65.8937 63.1557 65.9017 63.0096 65.9331 62.8572C66.818 62.9915 66.845 62.1322 67.4313 61.7442C68.0186 61.3518 68.9091 61.1849 69.6066 61.1383C69.5628 60.4238 69.7832 59.7172 69.7461 58.9763C68.8022 58.8982 68.8449 58.3928 69.0647 57.6204C69.4188 57.1292 70.0918 57.2213 70.7477 57.2669C70.7343 57.982 71.6073 58.0684 72.1037 58.2298C73.0435 58.5305 73.0403 59.4727 73.468 60.2035C74.3084 60.3215 74.0128 56.3399 73.9852 55.8176C73.9346 54.8778 74.4647 53.6039 73.5304 52.9216C72.6743 52.2937 72.0026 51.184 71.5439 50.0271C71.4173 50.144 71.2875 50.2424 71.152 50.2952C71.1442 50.3497 71.1402 50.3841 71.1296 50.352C71.1402 50.384 71.1442 50.3497 71.152 50.2952C70.9394 50.3818 70.7169 50.3841 70.4882 50.2682C70.6742 50.3609 69.7141 49.1434 69.763 49.2446C69.5965 48.8995 69.7512 48.5133 69.6387 48.1596C69.528 47.8099 68.9372 47.7083 69.1423 47.1742C69.3611 46.619 70.6776 43.3208 71.4809 43.4198C71.6185 43.4372 72.0676 43.7003 72.5174 43.9762C72.3617 43.7981 72.2014 43.6322 72.0279 43.4967C70.3222 42.16 67.9787 42.6249 66.5453 40.5095C65.9399 39.6135 66.3305 38.9732 66.7623 38.1272C67.1654 37.3531 66.66 35.8017 66.674 34.9168C66.5386 34.931 66.3553 34.8668 66.2182 34.8763C66.1765 33.1624 65.2996 33.8775 64.1303 33.6718C62.9937 33.4705 62.4939 31.3934 61.8834 30.5417C60.857 29.1089 60.4427 29.3624 60.1217 30.8402C59.7457 32.5592 57.5949 32.051 56.2913 31.9538C56.2166 30.6142 56.5246 29.205 56.094 27.8991C55.6893 26.6703 54.7662 25.7276 54.0057 24.7147C53.5374 24.0918 49.001 18.5806 52.6959 19.2927C52.8466 18.648 50.5058 15.4333 50.0066 14.9177C49.1084 13.9969 47.6653 13.5646 46.4984 13.1054C45.5377 12.7288 44.3122 13.1206 43.446 12.4809C43.781 11.9132 44.5056 12.0912 45.0053 11.8389C45.9143 11.3779 45.3791 10.0654 45.2803 9.33854C45.0132 7.43905 46.9407 8.03775 48.2641 7.96979C48.1151 7.9776 49.0005 5.86351 49.0859 5.70827C49.5733 4.79933 50.8044 4.64305 51.7329 4.575C51.8245 3.55202 50.6683 2.64354 50.1618 1.87737C50.0786 1.75589 49.9105 1.3681 49.7193 0.927971C49.2326 0.910388 49.0476 0.661391 48.7183 1.6249C48.386 2.59189 48.5765 2.83463 47.4685 2.95497C46.631 3.04544 45.7451 2.90332 44.9047 2.94826C44.9384 3.94319 43.6432 3.75772 43.7411 4.98211C42.4549 5.05007 41.9445 4.63519 40.8156 4.26193C40.7724 4.24836 40.724 4.24389 40.6813 4.23325C40.5036 5.24458 40.1687 6.3356 40.1501 7.23216C40.131 8.15133 39.9461 8.35543 39.2389 8.91531C38.728 9.32123 38.105 9.56803 37.8831 10.2566C36.0837 10.3521 34.3096 10.3594 32.4967 10.342C31.6855 10.3342 30.3583 10.0637 29.6888 10.5477C29.094 10.9811 29.1824 12.088 28.3149 12.1561C28.3244 14.2922 26.5763 13.4366 25.0775 13.9436C24.2568 14.2224 23.8009 14.8347 23.2243 15.4889C22.6009 16.1978 22.7762 16.3186 22.4643 17.2237C22.037 18.4671 21.5637 17.3237 20.852 17.9633C20.2421 18.5115 21.5873 20.4054 21.8672 20.904C22.4783 22.0243 22.8465 23.147 22.7386 24.4392C22.4075 24.5607 22.0955 24.73 21.8155 24.9468C23.2972 24.9306 23.5749 25.1486 23.4519 26.6518C23.4271 26.9986 22.5109 27.2106 22.2765 27.3994C21.8212 27.7717 21.2518 28.4472 21.0056 28.9757C20.721 29.5935 19.3714 34.5598 20.7925 34.6318C20.7745 34.7645 20.8167 34.9483 20.8267 35.0861C21.2186 35.108 21.6267 35.1142 22.0191 35.0985C21.9752 34.9034 22.1057 34.5982 22.0594 34.4008C22.634 34.18 23.4283 34.1872 23.9916 34.4227C24.0062 34.7584 24.1445 35.5002 23.8819 35.7555C23.5498 36.0815 22.9189 35.7223 22.5221 35.8545C21.8886 36.0653 22.1303 36.2727 21.7424 36.7078C21.2983 37.207 21.281 37.0294 20.6616 37.3082C20.1116 37.5561 20.151 37.4661 19.7592 38.0282C19.4726 38.4425 19.3832 38.6859 19.0459 39.0074C18.2948 39.7209 17.6508 40.5017 16.9391 41.3173C16.1971 42.165 15.5574 42.1116 14.582 42.5169C13.2672 43.0645 13.8968 43.6563 13.4617 44.7114C13.129 45.5164 12.1278 45.571 11.5679 46.2848C10.8377 47.213 10.7792 47.4923 9.50879 47.5086C9.4739 48.0174 9.49358 48.5504 9.45759 49.0608C8.62049 49.2411 8.38447 50.5267 7.51202 50.6774C7.49855 50.7444 7.48512 50.814 7.46754 50.8781C6.57491 50.9343 4.56526 50.6172 4.79243 52.081C5.42318 51.9849 5.91323 52.4234 5.72776 53.0699C5.71374 53.1243 4.23703 53.3728 4.03521 53.5662C3.0273 54.5201 4.05101 55.4145 4.96323 55.8029C5.04028 57.2931 4.82558 58.5911 4.56759 59.9413C4.34842 61.0752 4.56522 61.1454 3.47369 61.6766C2.52091 62.1398 1.74679 62.5299 1.17339 63.4002C1.00633 63.656 0.869867 63.9118 0.742218 64.1591C1.99076 64.7915 2.92386 65.6441 2.867 66.7612L14.7748 68.7653Z" fill="#FB295B"/>
<path d="M44.8731 54.0101H33.8883L31.9515 58.4827C31.4809 59.5829 31.2465 60.4025 31.2465 60.9432C31.2465 61.3795 31.4501 61.7627 31.8591 62.093C32.2697 62.424 33.1637 62.6336 34.542 62.7226V63.5063H25.5933V62.7226C26.7791 62.513 27.5473 62.2427 27.8964 61.9116C28.6099 61.2477 29.3952 59.8875 30.2507 57.8291L40.2431 34.4669H40.9754L50.8651 58.0926C51.6496 59.9935 52.3682 61.2229 53.0209 61.7815C53.6754 62.3385 54.5788 62.6525 55.7312 62.7226V63.5063H44.5343V62.7226C45.6678 62.6704 46.431 62.4831 46.8236 62.1614C47.2155 61.838 47.4122 61.4488 47.4122 60.9945C47.4122 60.3854 47.1325 59.4186 46.5738 58.0926L44.8731 54.0101ZM44.2742 52.4668L39.4594 40.9824L34.542 52.4668H44.2742Z" fill="white"/>
<path d="M49.3717 27.3293L49.3457 26.9464H48.962H48.2844H47.9582L47.8844 27.2641C47.7492 27.846 47.5426 28.2549 47.2887 28.5249C47.1063 28.7056 46.9048 28.7875 46.6624 28.7875C46.624 28.7875 46.5259 28.7719 46.3464 28.7044C46.175 28.64 45.9577 28.5392 45.692 28.3977L45.692 28.3976L45.6848 28.394C43.7912 27.4322 41.8543 26.9464 39.8799 26.9464C37.3717 26.9464 35.0514 27.5709 32.9269 28.8202L32.9268 28.8203C30.8007 30.0715 29.1302 31.8323 27.9174 34.0925L27.9173 34.0926C26.7065 36.3505 26.1028 38.8216 26.1028 41.5003C26.1028 44.8425 27.0132 47.7634 28.8454 50.2446L28.8457 50.2449C31.3207 53.5898 34.8228 55.2569 39.2982 55.2569C41.784 55.2569 43.9495 54.6971 45.7774 53.5592C47.6022 52.424 49.1827 50.6584 50.5303 48.2909L50.7233 47.9517L50.3944 47.7416L49.7887 47.3549L49.4622 47.1465L49.235 47.4603C47.681 49.6071 46.2912 50.9949 45.0694 51.6783C43.8388 52.3648 42.404 52.7143 40.7525 52.7143C38.8504 52.7143 37.1788 52.2674 35.7235 51.3815L35.7233 51.3814C34.2739 50.4998 33.1817 49.2316 32.4467 47.5597L32.4467 47.5597C31.708 45.8803 31.3317 43.8799 31.3317 41.5482C31.3317 38.7091 31.7292 36.3611 32.508 34.4892C33.2914 32.6103 34.3531 31.2748 35.6772 30.4423L35.6773 30.4423C37.0231 29.5956 38.5251 29.1707 40.1947 29.1707C42.1939 29.1707 43.8861 29.7354 45.2915 30.8509C46.6865 31.9591 47.7896 33.7918 48.5684 36.4091L48.6557 36.7026H48.962H49.5677H50.0071L49.9774 36.2642L49.3717 27.3293Z" fill="white" stroke="#FB295B" stroke-width="0.821289"/>
<path d="M104.712 37.4887C104.712 38.8139 104.408 40.0304 103.8 41.1384C103.191 42.2246 102.257 43.1045 100.997 43.7779C99.7372 44.4514 98.173 44.7881 96.3047 44.7881H92.8505V53H87.2782V30.1241H96.3047C98.1296 30.1241 99.672 30.4391 100.932 31.0691C102.192 31.6991 103.137 32.5681 103.767 33.676C104.397 34.784 104.712 36.0549 104.712 37.4887ZM95.8811 40.3563C96.9456 40.3563 97.7385 40.1065 98.2599 39.6068C98.7813 39.1072 99.042 38.4011 99.042 37.4887C99.042 36.5762 98.7813 35.8702 98.2599 35.3705C97.7385 34.8709 96.9456 34.621 95.8811 34.621H92.8505V40.3563H95.8811ZM113.088 30.1241V43.8105C113.088 45.1792 113.424 46.2328 114.098 46.9714C114.771 47.7101 115.76 48.0794 117.063 48.0794C118.367 48.0794 119.366 47.7101 120.061 46.9714C120.756 46.2328 121.104 45.1792 121.104 43.8105V30.1241H126.676V43.7779C126.676 45.82 126.242 47.5471 125.373 48.9592C124.504 50.3713 123.331 51.4358 121.854 52.1527C120.398 52.8697 118.769 53.2281 116.966 53.2281C115.162 53.2281 113.544 52.8805 112.11 52.1853C110.698 51.4684 109.579 50.4039 108.754 48.9918C107.928 47.558 107.515 45.82 107.515 43.7779V30.1241H113.088ZM151.054 53H145.482L136.162 38.8899V53H130.589V30.1241H136.162L145.482 44.2993V30.1241H151.054V53ZM169.431 30.1241V45.7006C169.431 48.112 168.747 49.9694 167.378 51.2729C166.031 52.5764 164.207 53.2281 161.904 53.2281C159.492 53.2281 157.559 52.5438 156.103 51.1751C154.648 49.8065 153.92 47.8621 153.92 45.3421H159.46C159.46 46.298 159.655 47.0258 160.046 47.5254C160.437 48.0034 161.002 48.2423 161.741 48.2423C162.414 48.2423 162.936 48.0251 163.305 47.5906C163.674 47.1561 163.859 46.5261 163.859 45.7006V30.1241H169.431ZM188.173 48.9592H179.635L178.266 53H172.433L180.71 30.1241H187.163L195.44 53H189.541L188.173 48.9592ZM186.739 44.6578L183.904 36.283L181.101 44.6578H186.739ZM211.808 41.2687C213.133 41.5512 214.198 42.2138 215.002 43.2565C215.805 44.2776 216.207 45.4507 216.207 46.7759C216.207 48.6877 215.534 50.2084 214.187 51.3381C212.862 52.446 211.004 53 208.615 53H197.959V30.1241H208.256C210.581 30.1241 212.395 30.6563 213.698 31.7208C215.023 32.7853 215.686 34.23 215.686 36.0549C215.686 37.4018 215.328 38.5206 214.611 39.4113C213.915 40.302 212.981 40.9212 211.808 41.2687ZM203.531 39.3787H207.181C208.093 39.3787 208.788 39.1832 209.266 38.7921C209.766 38.3794 210.016 37.782 210.016 36.9999C210.016 36.2178 209.766 35.6204 209.266 35.2076C208.788 34.7948 208.093 34.5884 207.181 34.5884H203.531V39.3787ZM207.637 48.503C208.571 48.503 209.288 48.2966 209.788 47.8839C210.309 47.4494 210.57 46.8302 210.57 46.0264C210.57 45.2226 210.298 44.5926 209.755 44.1364C209.234 43.6802 208.506 43.4521 207.572 43.4521H203.531V48.503H207.637ZM218.82 41.6272C218.82 39.4113 219.32 37.4235 220.319 35.6638C221.319 33.8824 222.676 32.492 224.393 31.4927C226.131 30.4934 228.053 29.9937 230.16 29.9937C232.637 29.9937 234.799 30.5911 236.645 31.786C238.492 32.9808 239.839 34.6753 240.686 36.8695H237.134C236.504 35.5009 235.592 34.4472 234.397 33.7086C233.224 32.97 231.811 32.6007 230.16 32.6007C228.575 32.6007 227.152 32.97 225.892 33.7086C224.632 34.4472 223.643 35.5009 222.926 36.8695C222.209 38.2164 221.851 39.8023 221.851 41.6272C221.851 43.4303 222.209 45.0162 222.926 46.3849C223.643 47.7318 224.632 48.7746 225.892 49.5132C227.152 50.2518 228.575 50.6212 230.16 50.6212C231.811 50.6212 233.224 50.2627 234.397 49.5458C235.592 48.8072 236.504 47.7535 237.134 46.3849H240.686C239.839 48.5573 238.492 50.241 236.645 51.4358C234.799 52.609 232.637 53.1955 230.16 53.1955C228.053 53.1955 226.131 52.7067 224.393 51.7291C222.676 50.7298 221.319 49.3503 220.319 47.5906C219.32 45.8309 218.82 43.8431 218.82 41.6272ZM248.066 50.5886H256.017V53H245.1V30.287H248.066V50.5886ZM272.592 47.949H262.685L260.86 53H257.732L265.944 30.4173H269.366L277.545 53H274.417L272.592 47.949ZM271.744 45.5376L267.639 34.0671L263.533 45.5376H271.744ZM288.326 53.2281C286.827 53.2281 285.48 52.9674 284.285 52.446C283.112 51.9029 282.188 51.1643 281.515 50.2301C280.841 49.2742 280.494 48.1772 280.472 46.9389H283.633C283.742 48.0034 284.176 48.9049 284.937 49.6436C285.719 50.3605 286.848 50.7189 288.326 50.7189C289.738 50.7189 290.846 50.3713 291.649 49.6761C292.475 48.9592 292.888 48.0468 292.888 46.9389C292.888 46.0699 292.649 45.3638 292.171 44.8207C291.693 44.2776 291.095 43.8648 290.379 43.5824C289.662 43.3 288.695 42.9958 287.478 42.67C285.979 42.2789 284.774 41.8879 283.861 41.4969C282.97 41.1058 282.199 40.4975 281.548 39.672C280.918 38.8247 280.603 37.6951 280.603 36.283C280.603 35.0447 280.918 33.9476 281.548 32.9917C282.178 32.0358 283.057 31.2972 284.187 30.7758C285.338 30.2544 286.653 29.9937 288.13 29.9937C290.259 29.9937 291.997 30.526 293.344 31.5905C294.713 32.655 295.484 34.0671 295.658 35.8267H292.399C292.29 34.9578 291.834 34.1974 291.03 33.5457C290.226 32.8722 289.162 32.5355 287.837 32.5355C286.598 32.5355 285.588 32.8613 284.806 33.5131C284.024 34.1431 283.633 35.0338 283.633 36.1852C283.633 37.0107 283.861 37.6842 284.317 38.2056C284.795 38.727 285.371 39.1289 286.045 39.4113C286.74 39.672 287.706 39.9761 288.945 40.3237C290.444 40.7365 291.649 41.1493 292.562 41.562C293.474 41.9531 294.256 42.5722 294.908 43.4195C295.56 44.245 295.886 45.3747 295.886 46.8085C295.886 47.9165 295.592 48.9592 295.006 49.9368C294.419 50.9144 293.55 51.7074 292.399 52.3157C291.248 52.924 289.89 53.2281 288.326 53.2281ZM307.451 53.2281C305.952 53.2281 304.605 52.9674 303.41 52.446C302.237 51.9029 301.314 51.1643 300.641 50.2301C299.967 49.2742 299.62 48.1772 299.598 46.9389H302.759C302.867 48.0034 303.302 48.9049 304.062 49.6436C304.844 50.3605 305.974 50.7189 307.451 50.7189C308.863 50.7189 309.971 50.3713 310.775 49.6761C311.601 48.9592 312.013 48.0468 312.013 46.9389C312.013 46.0699 311.774 45.3638 311.296 44.8207C310.819 44.2776 310.221 43.8648 309.504 43.5824C308.787 43.3 307.821 42.9958 306.604 42.67C305.105 42.2789 303.899 41.8879 302.987 41.4969C302.096 41.1058 301.325 40.4975 300.673 39.672C300.043 38.8247 299.728 37.6951 299.728 36.283C299.728 35.0447 300.043 33.9476 300.673 32.9917C301.303 32.0358 302.183 31.2972 303.313 30.7758C304.464 30.2544 305.778 29.9937 307.256 29.9937C309.385 29.9937 311.123 30.526 312.47 31.5905C313.838 32.655 314.609 34.0671 314.783 35.8267H311.525C311.416 34.9578 310.96 34.1974 310.156 33.5457C309.352 32.8722 308.288 32.5355 306.962 32.5355C305.724 32.5355 304.714 32.8613 303.932 33.5131C303.15 34.1431 302.759 35.0338 302.759 36.1852C302.759 37.0107 302.987 37.6842 303.443 38.2056C303.921 38.727 304.497 39.1289 305.17 39.4113C305.865 39.672 306.832 39.9761 308.07 40.3237C309.569 40.7365 310.775 41.1493 311.688 41.562C312.6 41.9531 313.382 42.5722 314.034 43.4195C314.686 44.245 315.011 45.3747 315.011 46.8085C315.011 47.9165 314.718 48.9592 314.132 49.9368C313.545 50.9144 312.676 51.7074 311.525 52.3157C310.373 52.924 309.015 53.2281 307.451 53.2281ZM322.341 30.287V53H319.375V30.287H322.341ZM340.234 30.287V32.6984H330.36V40.3563H338.376V42.7677H330.36V53H327.395V30.287H340.234ZM346.781 30.287V53H343.815V30.287H346.781ZM354.8 32.6984V40.2911H363.077V42.7352H354.8V50.556H364.055V53H351.835V30.2544H364.055V32.6984H354.8ZM375.613 30.287C378.09 30.287 380.23 30.7541 382.033 31.6882C383.858 32.6007 385.248 33.915 386.204 35.6312C387.182 37.3475 387.67 39.3678 387.67 41.6924C387.67 44.0169 387.182 46.0373 386.204 47.7535C385.248 49.448 383.858 50.7515 382.033 51.6639C380.23 52.5546 378.09 53 375.613 53H368.542V30.287H375.613ZM375.613 50.556C378.546 50.556 380.784 49.7848 382.326 48.2423C383.869 46.6782 384.64 44.4948 384.64 41.6924C384.64 38.8682 383.858 36.6631 382.293 35.0773C380.751 33.4914 378.524 32.6984 375.613 32.6984H371.507V50.556H375.613Z" fill="white"/>
</svg>
